Jump_normalized_Precision Landing12_filtered_grf
version=1
nRows=20
nColumns=37
inDegrees=yes
endheader
time		1_ground_force_vx		1_ground_force_vy		1_ground_force_vz		1_ground_force_px		1_ground_force_py		1_ground_force_pz		1_ground_torque_x		1_ground_torque_y		1_ground_torque_z		2_ground_force_vx		2_ground_force_vy		2_ground_force_vz		2_ground_force_px		2_ground_force_py		2_ground_force_pz		2_ground_torque_x		2_ground_torque_y		2_ground_torque_z		3_ground_force_vx		3_ground_force_vy		3_ground_force_vz		3_ground_force_px		3_ground_force_py		3_ground_force_pz		3_ground_torque_x		3_ground_torque_y		3_ground_torque_z		4_ground_force_vx		4_ground_force_vy		4_ground_force_vz		4_ground_force_px		4_ground_force_py		4_ground_force_pz		4_ground_torque_x		4_ground_torque_y		4_ground_torque_z		
0.189500		-0.000000		-0.000000		-0.000000		0.104050		0.000000		0.350637		-0.000000		-0.000000		0.000000		0.000000		-0.000000		0.000000		-0.146138		0.000000		0.395224		0.000000		-0.000000		-0.000000		-32.032988		609.515435		135.534620		0.353348		1.253665		1.891294		1.534916		-29.205990		-6.494377		2.906773		582.680917		105.469074		-0.290008		1.264016		1.902657		7.879854		17.803385		84.825413		
0.193313		0.000000		-0.000000		-0.000000		0.104050		0.000000		0.350637		-0.000000		-0.000000		0.000000		-0.000000		-0.000000		-0.000000		-0.146138		0.000000		0.395224		-0.000000		0.000000		-0.000000		-32.689679		611.375091		134.992760		0.353438		1.253673		1.891250		1.567107		-29.308639		-6.471402		3.720258		583.117179		106.632583		-0.289998		1.264020		1.902691		7.840715		17.593037		84.900204		
0.197126		0.000000		-0.000000		-0.000000		0.104050		0.000000		0.350637		-0.000000		-0.000000		0.000000		-0.000000		-0.000000		-0.000000		-0.146138		0.000000		0.395224		-0.000000		0.000000		-0.000000		-33.033780		612.622480		134.225614		0.353516		1.253674		1.891201		1.584911		-29.392699		-6.439942		4.698189		584.546928		107.830697		-0.290011		1.264026		1.902714		7.790635		17.448260		85.094219		
0.200939		0.000000		0.000000		-0.000000		0.104050		0.000000		0.350637		0.000000		-0.000000		-0.000000		-0.000000		-0.000000		-0.000000		-0.146138		0.000000		0.395224		-0.000000		0.000000		-0.000000		-32.962209		613.099840		133.284095		0.353553		1.253674		1.891167		1.583146		-29.446650		-6.401519		5.813705		586.730376		108.656600		-0.290042		1.264032		1.902715		7.748599		17.421103		85.356005		
0.204753		0.000000		0.000000		0.000000		0.104050		0.000000		0.350637		0.000000		0.000000		-0.000000		-0.000000		0.000000		-0.000000		-0.146138		0.000000		0.395224		-0.000000		0.000000		0.000000		-32.453086		612.775741		132.142879		0.353540		1.253675		1.891152		1.560496		-29.465125		-6.354048		6.991235		589.361644		108.780010		-0.290074		1.264033		1.902699		0.383569		32.334873		5.968131		
0.208566		-0.000000		0.000000		0.000000		0.104050		0.000000		0.350637		0.000000		0.000000		-0.000000		0.000000		0.000000		0.000000		-0.146138		0.000000		0.395224		0.000000		-0.000000		0.000000		-31.548143		611.675223		130.701010		0.353490		1.253685		1.891155		1.518866		-29.448728		-6.292520		8.137395		592.217738		108.037546		-0.290090		1.264027		1.902679		0.446721		32.511116		5.930962		
0.212379		-0.000000		0.000000		0.000000		0.104050		0.000000		0.350637		0.000000		0.000000		-0.000000		0.000000		0.000000		0.000000		-0.146138		0.000000		0.395224		0.000000		-0.000000		0.000000		-30.383795		609.774304		128.905284		0.353429		1.253704		1.891163		1.464966		-29.400496		-6.215216		9.144074		595.247172		106.507966		-0.290084		1.264013		1.902663		0.502586		32.716533		5.853990		
0.216192		-0.000000		-0.000000		0.000000		0.104050		0.000000		0.350637		-0.000000		0.000000		0.000000		0.000000		0.000000		0.000000		-0.146138		0.000000		0.395224		0.000000		-0.000000		0.000000		-29.105403		607.009505		126.715383		0.353386		1.253731		1.891160		1.406068		-29.324343		-6.121560		9.963227		598.548213		104.451167		-0.290056		1.263996		1.902664		0.548441		32.948025		5.749677		
0.220005		-0.000000		-0.000000		-0.000000		0.104050		0.000000		0.350637		-0.000000		-0.000000		0.000000		0.000000		-0.000000		0.000000		-0.146138		0.000000		0.395224		0.000000		-0.000000		-0.000000		-27.851239		603.261076		124.301602		0.353366		1.253759		1.891144		1.348976		-29.218977		-6.020554		10.605878		602.241985		102.180622		-0.290021		1.263980		1.902678		0.584811		33.207791		5.634268		
0.223818		-0.000000		-0.000000		-0.000000		0.104050		0.000000		0.350637		-0.000000		-0.000000		0.000000		-0.000000		-0.000000		-0.000000		-0.146138		0.000000		0.395224		-0.000000		0.000000		-0.000000		-26.704831		598.428757		121.869434		0.353353		1.253781		1.891117		1.297563		-29.077105		-5.921523		11.157393		606.323386		99.958827		-0.289989		1.263964		1.902700		0.616406		33.497222		5.522370		
0.227631		0.000000		-0.000000		-0.000000		0.104050		0.000000		0.350637		-0.000000		-0.000000		0.000000		-0.000000		-0.000000		-0.000000		-0.146138		0.000000		0.395224		-0.000000		0.000000		-0.000000		-25.646612		592.502574		119.586818		0.353314		1.253794		1.891099		1.250482		-28.889349		-5.830835		11.733629		610.593987		97.847978		-0.289969		1.263947		1.902723		0.649714		33.809768		5.418031		
0.231444		0.000000		-0.000000		-0.000000		0.104050		0.000000		0.350637		-0.000000		-0.000000		0.000000		-0.000000		-0.000000		-0.000000		-0.146138		0.000000		0.395224		-0.000000		0.000000		-0.000000		-24.705577		585.531964		117.619244		0.353214		1.253801		1.891111		1.208786		-28.648709		-5.754834		12.402800		614.707191		95.729167		-0.289961		1.263927		1.902740		0.688601		34.128428		5.314864		
0.235258		0.000000		0.000000		0.000000		0.104050		0.000000		0.350637		0.000000		0.000000		-0.000000		-0.000000		0.000000		-0.000000		-0.146138		0.000000		0.395224		-0.000000		0.000000		0.000000		-23.861151		577.689603		115.815625		0.353060		1.253805		1.891156		1.171348		-28.358887		-5.685410		13.148997		618.265742		93.390941		-0.289958		1.263904		1.902753		0.732211		34.428514		5.200531		
0.239071		0.000000		0.000000		0.000000		0.104050		0.000000		0.350637		0.000000		0.000000		-0.000000		0.000000		0.000000		0.000000		-0.146138		0.000000		0.395224		0.000000		-0.000000		0.000000		-23.117211		569.195250		114.007395		0.352883		1.253810		1.891225		1.138470		-28.031569		-5.614604		13.859373		620.940552		90.648788		-0.289952		1.263882		1.902768		0.774185		34.685762		5.063643		
0.242884		-0.000000		0.000000		0.000000		0.104050		0.000000		0.350637		0.000000		0.000000		-0.000000		0.000000		0.000000		0.000000		-0.146138		0.000000		0.395224		0.000000		-0.000000		0.000000		-22.423164		560.320422		111.897065		0.352736		1.253822		1.891297		1.107861		-27.683753		-5.528498		14.401763		622.515900		87.458113		-0.289940		1.263863		1.902791		0.807020		34.883436		4.900820		
0.246697		-0.000000		0.000000		0.000000		0.104050		0.000000		0.350637		0.000000		0.000000		-0.000000		0.000000		0.000000		0.000000		-0.146138		0.000000		0.395224		0.000000		-0.000000		0.000000		-21.707832		551.335683		109.350196		0.352654		1.253847		1.891362		1.076163		-27.332399		-5.421022		14.684923		622.906052		83.918134		-0.289928		1.263855		1.902824		0.825508		35.016449		4.717426		
0.250510		-0.000000		-0.000000		-0.000000		0.104050		0.000000		0.350637		-0.000000		-0.000000		0.000000		0.000000		0.000000		0.000000		-0.146138		0.000000		0.395224		0.000000		-0.000000		-0.000000		-21.000076		542.473261		106.509398		0.352626		1.253889		1.891431		1.044865		-26.990915		-5.299406		14.696042		622.113247		80.199586		-0.289919		1.263859		1.902866		0.828891		35.088623		4.523442		
0.254323		-0.000000		-0.000000		-0.000000		0.104050		0.000000		0.350637		-0.000000		-0.000000		0.000000		0.000000		-0.000000		0.000000		-0.146138		0.000000		0.395224		0.000000		-0.000000		-0.000000		-20.350953		533.955053		103.637163		0.352628		1.253952		1.891528		1.016483		-26.669823		-5.176436		14.493059		620.176717		76.453417		-0.289921		1.263875		1.902914		0.820417		35.106734		4.327844		
0.258136		0.000000		-0.000000		-0.000000		0.104050		0.000000		0.350637		-0.000000		-0.000000		0.000000		-0.000000		-0.000000		-0.000000		-0.146138		0.000000		0.395224		-0.000000		0.000000		-0.000000		-19.817577		526.001710		100.942216		0.352633		1.254031		1.891656		0.993760		-26.376557		-5.061785		14.183560		617.189365		72.743935		-0.289933		1.263898		1.902965		0.806105		35.077180		4.134307		
0.261949		0.000000		-0.000000		-0.000000		0.104050		0.000000		0.350637		-0.000000		-0.000000		0.000000		-0.000000		-0.000000		-0.000000		-0.146138		0.000000		0.395224		-0.000000		0.000000		-0.000000		-19.375882		518.838874		98.401600		0.352642		1.254114		1.891799		0.975325		-26.116836		-4.953249		13.871397		613.294842		69.068928		-0.289951		1.263922		1.903016		0.791693		35.003031		3.942021		
